%TF.GenerationSoftware,KiCad,Pcbnew,(5.1.8)-1*%
%TF.CreationDate,2021-01-26T10:30:40+02:00*%
%TF.ProjectId,bigartsey,62696761-7274-4736-9579-2e6b69636164,rev?*%
%TF.SameCoordinates,Original*%
%TF.FileFunction,Legend,Bot*%
%TF.FilePolarity,Positive*%
%FSLAX46Y46*%
G04 Gerber Fmt 4.6, Leading zero omitted, Abs format (unit mm)*
G04 Created by KiCad (PCBNEW (5.1.8)-1) date 2021-01-26 10:30:40*
%MOMM*%
%LPD*%
G01*
G04 APERTURE LIST*
%ADD10C,0.381000*%
%ADD11C,0.150000*%
G04 APERTURE END LIST*
D10*
%TO.C,U1*%
X37592000Y-80264000D02*
X68072000Y-80264000D01*
X68072000Y-80264000D02*
X68072000Y-98044000D01*
X68072000Y-98044000D02*
X37592000Y-98044000D01*
X37592000Y-82804000D02*
X40132000Y-82804000D01*
X40132000Y-82804000D02*
X40132000Y-80264000D01*
D11*
G36*
X43471360Y-94085568D02*
G01*
X43771360Y-94085568D01*
X43771360Y-93985568D01*
X43471360Y-93985568D01*
X43471360Y-94085568D01*
G37*
X43471360Y-94085568D02*
X43771360Y-94085568D01*
X43771360Y-93985568D01*
X43471360Y-93985568D01*
X43471360Y-94085568D01*
G36*
X43871360Y-93885568D02*
G01*
X43971360Y-93885568D01*
X43971360Y-93785568D01*
X43871360Y-93785568D01*
X43871360Y-93885568D01*
G37*
X43871360Y-93885568D02*
X43971360Y-93885568D01*
X43971360Y-93785568D01*
X43871360Y-93785568D01*
X43871360Y-93885568D01*
G36*
X43471360Y-94085568D02*
G01*
X43571360Y-94085568D01*
X43571360Y-93585568D01*
X43471360Y-93585568D01*
X43471360Y-94085568D01*
G37*
X43471360Y-94085568D02*
X43571360Y-94085568D01*
X43571360Y-93585568D01*
X43471360Y-93585568D01*
X43471360Y-94085568D01*
G36*
X43471360Y-93685568D02*
G01*
X44271360Y-93685568D01*
X44271360Y-93585568D01*
X43471360Y-93585568D01*
X43471360Y-93685568D01*
G37*
X43471360Y-93685568D02*
X44271360Y-93685568D01*
X44271360Y-93585568D01*
X43471360Y-93585568D01*
X43471360Y-93685568D01*
G36*
X44071360Y-94085568D02*
G01*
X44271360Y-94085568D01*
X44271360Y-93985568D01*
X44071360Y-93985568D01*
X44071360Y-94085568D01*
G37*
X44071360Y-94085568D02*
X44271360Y-94085568D01*
X44271360Y-93985568D01*
X44071360Y-93985568D01*
X44071360Y-94085568D01*
D10*
X37592000Y-98044000D02*
X35052000Y-98044000D01*
X35052000Y-98044000D02*
X35052000Y-80264000D01*
X35052000Y-80264000D02*
X37592000Y-80264000D01*
X37592000Y-82804000D02*
X37592000Y-80264000D01*
D11*
X39300095Y-87772604D02*
X39300095Y-87315461D01*
X38500095Y-87544032D02*
X39300095Y-87544032D01*
X39300095Y-87124985D02*
X38500095Y-86591651D01*
X39300095Y-86591651D02*
X38500095Y-87124985D01*
X39300095Y-86134508D02*
X39300095Y-86058318D01*
X39262000Y-85982128D01*
X39223904Y-85944032D01*
X39147714Y-85905937D01*
X38995333Y-85867842D01*
X38804857Y-85867842D01*
X38652476Y-85905937D01*
X38576285Y-85944032D01*
X38538190Y-85982128D01*
X38500095Y-86058318D01*
X38500095Y-86134508D01*
X38538190Y-86210699D01*
X38576285Y-86248794D01*
X38652476Y-86286889D01*
X38804857Y-86324985D01*
X38995333Y-86324985D01*
X39147714Y-86286889D01*
X39223904Y-86248794D01*
X39262000Y-86210699D01*
X39300095Y-86134508D01*
X39338190Y-84953556D02*
X38309619Y-85639270D01*
X38500095Y-84686889D02*
X39300095Y-84686889D01*
X39300095Y-84496413D01*
X39262000Y-84382128D01*
X39185809Y-84305937D01*
X39109619Y-84267842D01*
X38957238Y-84229747D01*
X38842952Y-84229747D01*
X38690571Y-84267842D01*
X38614380Y-84305937D01*
X38538190Y-84382128D01*
X38500095Y-84496413D01*
X38500095Y-84686889D01*
X39300095Y-83963080D02*
X39300095Y-83467842D01*
X38995333Y-83734508D01*
X38995333Y-83620223D01*
X38957238Y-83544032D01*
X38919142Y-83505937D01*
X38842952Y-83467842D01*
X38652476Y-83467842D01*
X38576285Y-83505937D01*
X38538190Y-83544032D01*
X38500095Y-83620223D01*
X38500095Y-83848794D01*
X38538190Y-83924985D01*
X38576285Y-83963080D01*
X41040095Y-84283476D02*
X41840095Y-84283476D01*
X41840095Y-84093000D01*
X41802000Y-83978714D01*
X41725809Y-83902523D01*
X41649619Y-83864428D01*
X41497238Y-83826333D01*
X41382952Y-83826333D01*
X41230571Y-83864428D01*
X41154380Y-83902523D01*
X41078190Y-83978714D01*
X41040095Y-84093000D01*
X41040095Y-84283476D01*
X41763904Y-83521571D02*
X41802000Y-83483476D01*
X41840095Y-83407285D01*
X41840095Y-83216809D01*
X41802000Y-83140619D01*
X41763904Y-83102523D01*
X41687714Y-83064428D01*
X41611523Y-83064428D01*
X41497238Y-83102523D01*
X41040095Y-83559666D01*
X41040095Y-83064428D01*
X51200095Y-84283476D02*
X52000095Y-84283476D01*
X52000095Y-84093000D01*
X51962000Y-83978714D01*
X51885809Y-83902523D01*
X51809619Y-83864428D01*
X51657238Y-83826333D01*
X51542952Y-83826333D01*
X51390571Y-83864428D01*
X51314380Y-83902523D01*
X51238190Y-83978714D01*
X51200095Y-84093000D01*
X51200095Y-84283476D01*
X52000095Y-83331095D02*
X52000095Y-83254904D01*
X51962000Y-83178714D01*
X51923904Y-83140619D01*
X51847714Y-83102523D01*
X51695333Y-83064428D01*
X51504857Y-83064428D01*
X51352476Y-83102523D01*
X51276285Y-83140619D01*
X51238190Y-83178714D01*
X51200095Y-83254904D01*
X51200095Y-83331095D01*
X51238190Y-83407285D01*
X51276285Y-83445380D01*
X51352476Y-83483476D01*
X51504857Y-83521571D01*
X51695333Y-83521571D01*
X51847714Y-83483476D01*
X51923904Y-83445380D01*
X51962000Y-83407285D01*
X52000095Y-83331095D01*
X48660095Y-84283476D02*
X49460095Y-84283476D01*
X49460095Y-84093000D01*
X49422000Y-83978714D01*
X49345809Y-83902523D01*
X49269619Y-83864428D01*
X49117238Y-83826333D01*
X49002952Y-83826333D01*
X48850571Y-83864428D01*
X48774380Y-83902523D01*
X48698190Y-83978714D01*
X48660095Y-84093000D01*
X48660095Y-84283476D01*
X48660095Y-83064428D02*
X48660095Y-83521571D01*
X48660095Y-83293000D02*
X49460095Y-83293000D01*
X49345809Y-83369190D01*
X49269619Y-83445380D01*
X49231523Y-83521571D01*
X46882000Y-84302523D02*
X46920095Y-84378714D01*
X46920095Y-84493000D01*
X46882000Y-84607285D01*
X46805809Y-84683476D01*
X46729619Y-84721571D01*
X46577238Y-84759666D01*
X46462952Y-84759666D01*
X46310571Y-84721571D01*
X46234380Y-84683476D01*
X46158190Y-84607285D01*
X46120095Y-84493000D01*
X46120095Y-84416809D01*
X46158190Y-84302523D01*
X46196285Y-84264428D01*
X46462952Y-84264428D01*
X46462952Y-84416809D01*
X46120095Y-83921571D02*
X46920095Y-83921571D01*
X46120095Y-83464428D01*
X46920095Y-83464428D01*
X46120095Y-83083476D02*
X46920095Y-83083476D01*
X46920095Y-82893000D01*
X46882000Y-82778714D01*
X46805809Y-82702523D01*
X46729619Y-82664428D01*
X46577238Y-82626333D01*
X46462952Y-82626333D01*
X46310571Y-82664428D01*
X46234380Y-82702523D01*
X46158190Y-82778714D01*
X46120095Y-82893000D01*
X46120095Y-83083476D01*
X44342000Y-84302523D02*
X44380095Y-84378714D01*
X44380095Y-84493000D01*
X44342000Y-84607285D01*
X44265809Y-84683476D01*
X44189619Y-84721571D01*
X44037238Y-84759666D01*
X43922952Y-84759666D01*
X43770571Y-84721571D01*
X43694380Y-84683476D01*
X43618190Y-84607285D01*
X43580095Y-84493000D01*
X43580095Y-84416809D01*
X43618190Y-84302523D01*
X43656285Y-84264428D01*
X43922952Y-84264428D01*
X43922952Y-84416809D01*
X43580095Y-83921571D02*
X44380095Y-83921571D01*
X43580095Y-83464428D01*
X44380095Y-83464428D01*
X43580095Y-83083476D02*
X44380095Y-83083476D01*
X44380095Y-82893000D01*
X44342000Y-82778714D01*
X44265809Y-82702523D01*
X44189619Y-82664428D01*
X44037238Y-82626333D01*
X43922952Y-82626333D01*
X43770571Y-82664428D01*
X43694380Y-82702523D01*
X43618190Y-82778714D01*
X43580095Y-82893000D01*
X43580095Y-83083476D01*
X53740095Y-84283476D02*
X54540095Y-84283476D01*
X54540095Y-84093000D01*
X54502000Y-83978714D01*
X54425809Y-83902523D01*
X54349619Y-83864428D01*
X54197238Y-83826333D01*
X54082952Y-83826333D01*
X53930571Y-83864428D01*
X53854380Y-83902523D01*
X53778190Y-83978714D01*
X53740095Y-84093000D01*
X53740095Y-84283476D01*
X54273428Y-83140619D02*
X53740095Y-83140619D01*
X54578190Y-83331095D02*
X54006761Y-83521571D01*
X54006761Y-83026333D01*
X56356285Y-83826333D02*
X56318190Y-83864428D01*
X56280095Y-83978714D01*
X56280095Y-84054904D01*
X56318190Y-84169190D01*
X56394380Y-84245380D01*
X56470571Y-84283476D01*
X56622952Y-84321571D01*
X56737238Y-84321571D01*
X56889619Y-84283476D01*
X56965809Y-84245380D01*
X57042000Y-84169190D01*
X57080095Y-84054904D01*
X57080095Y-83978714D01*
X57042000Y-83864428D01*
X57003904Y-83826333D01*
X57080095Y-83140619D02*
X57080095Y-83293000D01*
X57042000Y-83369190D01*
X57003904Y-83407285D01*
X56889619Y-83483476D01*
X56737238Y-83521571D01*
X56432476Y-83521571D01*
X56356285Y-83483476D01*
X56318190Y-83445380D01*
X56280095Y-83369190D01*
X56280095Y-83216809D01*
X56318190Y-83140619D01*
X56356285Y-83102523D01*
X56432476Y-83064428D01*
X56622952Y-83064428D01*
X56699142Y-83102523D01*
X56737238Y-83140619D01*
X56775333Y-83216809D01*
X56775333Y-83369190D01*
X56737238Y-83445380D01*
X56699142Y-83483476D01*
X56622952Y-83521571D01*
X58820095Y-84283476D02*
X59620095Y-84283476D01*
X59620095Y-84093000D01*
X59582000Y-83978714D01*
X59505809Y-83902523D01*
X59429619Y-83864428D01*
X59277238Y-83826333D01*
X59162952Y-83826333D01*
X59010571Y-83864428D01*
X58934380Y-83902523D01*
X58858190Y-83978714D01*
X58820095Y-84093000D01*
X58820095Y-84283476D01*
X59620095Y-83559666D02*
X59620095Y-83026333D01*
X58820095Y-83369190D01*
X61779142Y-84245380D02*
X61779142Y-83978714D01*
X61360095Y-83864428D02*
X61360095Y-84245380D01*
X62160095Y-84245380D01*
X62160095Y-83864428D01*
X62160095Y-83178714D02*
X62160095Y-83331095D01*
X62122000Y-83407285D01*
X62083904Y-83445380D01*
X61969619Y-83521571D01*
X61817238Y-83559666D01*
X61512476Y-83559666D01*
X61436285Y-83521571D01*
X61398190Y-83483476D01*
X61360095Y-83407285D01*
X61360095Y-83254904D01*
X61398190Y-83178714D01*
X61436285Y-83140619D01*
X61512476Y-83102523D01*
X61702952Y-83102523D01*
X61779142Y-83140619D01*
X61817238Y-83178714D01*
X61855333Y-83254904D01*
X61855333Y-83407285D01*
X61817238Y-83483476D01*
X61779142Y-83521571D01*
X61702952Y-83559666D01*
X64319142Y-84016809D02*
X64281047Y-83902523D01*
X64242952Y-83864428D01*
X64166761Y-83826333D01*
X64052476Y-83826333D01*
X63976285Y-83864428D01*
X63938190Y-83902523D01*
X63900095Y-83978714D01*
X63900095Y-84283476D01*
X64700095Y-84283476D01*
X64700095Y-84016809D01*
X64662000Y-83940619D01*
X64623904Y-83902523D01*
X64547714Y-83864428D01*
X64471523Y-83864428D01*
X64395333Y-83902523D01*
X64357238Y-83940619D01*
X64319142Y-84016809D01*
X64319142Y-84283476D01*
X64433428Y-83140619D02*
X63900095Y-83140619D01*
X64738190Y-83331095D02*
X64166761Y-83521571D01*
X64166761Y-83026333D01*
X66859142Y-84016809D02*
X66821047Y-83902523D01*
X66782952Y-83864428D01*
X66706761Y-83826333D01*
X66592476Y-83826333D01*
X66516285Y-83864428D01*
X66478190Y-83902523D01*
X66440095Y-83978714D01*
X66440095Y-84283476D01*
X67240095Y-84283476D01*
X67240095Y-84016809D01*
X67202000Y-83940619D01*
X67163904Y-83902523D01*
X67087714Y-83864428D01*
X67011523Y-83864428D01*
X66935333Y-83902523D01*
X66897238Y-83940619D01*
X66859142Y-84016809D01*
X66859142Y-84283476D01*
X67240095Y-83102523D02*
X67240095Y-83483476D01*
X66859142Y-83521571D01*
X66897238Y-83483476D01*
X66935333Y-83407285D01*
X66935333Y-83216809D01*
X66897238Y-83140619D01*
X66859142Y-83102523D01*
X66782952Y-83064428D01*
X66592476Y-83064428D01*
X66516285Y-83102523D01*
X66478190Y-83140619D01*
X66440095Y-83216809D01*
X66440095Y-83407285D01*
X66478190Y-83483476D01*
X66516285Y-83521571D01*
X66859142Y-94938809D02*
X66821047Y-94824523D01*
X66782952Y-94786428D01*
X66706761Y-94748333D01*
X66592476Y-94748333D01*
X66516285Y-94786428D01*
X66478190Y-94824523D01*
X66440095Y-94900714D01*
X66440095Y-95205476D01*
X67240095Y-95205476D01*
X67240095Y-94938809D01*
X67202000Y-94862619D01*
X67163904Y-94824523D01*
X67087714Y-94786428D01*
X67011523Y-94786428D01*
X66935333Y-94824523D01*
X66897238Y-94862619D01*
X66859142Y-94938809D01*
X66859142Y-95205476D01*
X67240095Y-94062619D02*
X67240095Y-94215000D01*
X67202000Y-94291190D01*
X67163904Y-94329285D01*
X67049619Y-94405476D01*
X66897238Y-94443571D01*
X66592476Y-94443571D01*
X66516285Y-94405476D01*
X66478190Y-94367380D01*
X66440095Y-94291190D01*
X66440095Y-94138809D01*
X66478190Y-94062619D01*
X66516285Y-94024523D01*
X66592476Y-93986428D01*
X66782952Y-93986428D01*
X66859142Y-94024523D01*
X66897238Y-94062619D01*
X66935333Y-94138809D01*
X66935333Y-94291190D01*
X66897238Y-94367380D01*
X66859142Y-94405476D01*
X66782952Y-94443571D01*
X61779142Y-94938809D02*
X61741047Y-94824523D01*
X61702952Y-94786428D01*
X61626761Y-94748333D01*
X61512476Y-94748333D01*
X61436285Y-94786428D01*
X61398190Y-94824523D01*
X61360095Y-94900714D01*
X61360095Y-95205476D01*
X62160095Y-95205476D01*
X62160095Y-94938809D01*
X62122000Y-94862619D01*
X62083904Y-94824523D01*
X62007714Y-94786428D01*
X61931523Y-94786428D01*
X61855333Y-94824523D01*
X61817238Y-94862619D01*
X61779142Y-94938809D01*
X61779142Y-95205476D01*
X62160095Y-94481666D02*
X62160095Y-93986428D01*
X61855333Y-94253095D01*
X61855333Y-94138809D01*
X61817238Y-94062619D01*
X61779142Y-94024523D01*
X61702952Y-93986428D01*
X61512476Y-93986428D01*
X61436285Y-94024523D01*
X61398190Y-94062619D01*
X61360095Y-94138809D01*
X61360095Y-94367380D01*
X61398190Y-94443571D01*
X61436285Y-94481666D01*
X59239142Y-94938809D02*
X59201047Y-94824523D01*
X59162952Y-94786428D01*
X59086761Y-94748333D01*
X58972476Y-94748333D01*
X58896285Y-94786428D01*
X58858190Y-94824523D01*
X58820095Y-94900714D01*
X58820095Y-95205476D01*
X59620095Y-95205476D01*
X59620095Y-94938809D01*
X59582000Y-94862619D01*
X59543904Y-94824523D01*
X59467714Y-94786428D01*
X59391523Y-94786428D01*
X59315333Y-94824523D01*
X59277238Y-94862619D01*
X59239142Y-94938809D01*
X59239142Y-95205476D01*
X58820095Y-93986428D02*
X58820095Y-94443571D01*
X58820095Y-94215000D02*
X59620095Y-94215000D01*
X59505809Y-94291190D01*
X59429619Y-94367380D01*
X59391523Y-94443571D01*
X49079142Y-94881666D02*
X49079142Y-95148333D01*
X48660095Y-95148333D02*
X49460095Y-95148333D01*
X49460095Y-94767380D01*
X49193428Y-94119761D02*
X48660095Y-94119761D01*
X49498190Y-94310238D02*
X48926761Y-94500714D01*
X48926761Y-94005476D01*
X46920095Y-95681666D02*
X46120095Y-95415000D01*
X46920095Y-95148333D01*
X46196285Y-94424523D02*
X46158190Y-94462619D01*
X46120095Y-94576904D01*
X46120095Y-94653095D01*
X46158190Y-94767380D01*
X46234380Y-94843571D01*
X46310571Y-94881666D01*
X46462952Y-94919761D01*
X46577238Y-94919761D01*
X46729619Y-94881666D01*
X46805809Y-94843571D01*
X46882000Y-94767380D01*
X46920095Y-94653095D01*
X46920095Y-94576904D01*
X46882000Y-94462619D01*
X46843904Y-94424523D01*
X46196285Y-93624523D02*
X46158190Y-93662619D01*
X46120095Y-93776904D01*
X46120095Y-93853095D01*
X46158190Y-93967380D01*
X46234380Y-94043571D01*
X46310571Y-94081666D01*
X46462952Y-94119761D01*
X46577238Y-94119761D01*
X46729619Y-94081666D01*
X46805809Y-94043571D01*
X46882000Y-93967380D01*
X46920095Y-93853095D01*
X46920095Y-93776904D01*
X46882000Y-93662619D01*
X46843904Y-93624523D01*
X43588190Y-95420453D02*
X43550095Y-95306167D01*
X43550095Y-95115691D01*
X43588190Y-95039500D01*
X43626285Y-95001405D01*
X43702476Y-94963310D01*
X43778666Y-94963310D01*
X43854857Y-95001405D01*
X43892952Y-95039500D01*
X43931047Y-95115691D01*
X43969142Y-95268072D01*
X44007238Y-95344262D01*
X44045333Y-95382358D01*
X44121523Y-95420453D01*
X44197714Y-95420453D01*
X44273904Y-95382358D01*
X44312000Y-95344262D01*
X44350095Y-95268072D01*
X44350095Y-95077596D01*
X44312000Y-94963310D01*
X44350095Y-94734739D02*
X44350095Y-94277596D01*
X43550095Y-94506167D02*
X44350095Y-94506167D01*
X41802000Y-95224523D02*
X41840095Y-95300714D01*
X41840095Y-95415000D01*
X41802000Y-95529285D01*
X41725809Y-95605476D01*
X41649619Y-95643571D01*
X41497238Y-95681666D01*
X41382952Y-95681666D01*
X41230571Y-95643571D01*
X41154380Y-95605476D01*
X41078190Y-95529285D01*
X41040095Y-95415000D01*
X41040095Y-95338809D01*
X41078190Y-95224523D01*
X41116285Y-95186428D01*
X41382952Y-95186428D01*
X41382952Y-95338809D01*
X41040095Y-94843571D02*
X41840095Y-94843571D01*
X41040095Y-94386428D01*
X41840095Y-94386428D01*
X41040095Y-94005476D02*
X41840095Y-94005476D01*
X41840095Y-93815000D01*
X41802000Y-93700714D01*
X41725809Y-93624523D01*
X41649619Y-93586428D01*
X41497238Y-93548333D01*
X41382952Y-93548333D01*
X41230571Y-93586428D01*
X41154380Y-93624523D01*
X41078190Y-93700714D01*
X41040095Y-93815000D01*
X41040095Y-94005476D01*
X38500095Y-95167380D02*
X38881047Y-95434047D01*
X38500095Y-95624523D02*
X39300095Y-95624523D01*
X39300095Y-95319761D01*
X39262000Y-95243571D01*
X39223904Y-95205476D01*
X39147714Y-95167380D01*
X39033428Y-95167380D01*
X38957238Y-95205476D01*
X38919142Y-95243571D01*
X38881047Y-95319761D01*
X38881047Y-95624523D01*
X38728666Y-94862619D02*
X38728666Y-94481666D01*
X38500095Y-94938809D02*
X39300095Y-94672142D01*
X38500095Y-94405476D01*
X39300095Y-94215000D02*
X38500095Y-94024523D01*
X39071523Y-93872142D01*
X38500095Y-93719761D01*
X39300095Y-93529285D01*
X51619142Y-94881666D02*
X51619142Y-95148333D01*
X51200095Y-95148333D02*
X52000095Y-95148333D01*
X52000095Y-94767380D01*
X52000095Y-94081666D02*
X52000095Y-94462619D01*
X51619142Y-94500714D01*
X51657238Y-94462619D01*
X51695333Y-94386428D01*
X51695333Y-94195952D01*
X51657238Y-94119761D01*
X51619142Y-94081666D01*
X51542952Y-94043571D01*
X51352476Y-94043571D01*
X51276285Y-94081666D01*
X51238190Y-94119761D01*
X51200095Y-94195952D01*
X51200095Y-94386428D01*
X51238190Y-94462619D01*
X51276285Y-94500714D01*
X54159142Y-94881666D02*
X54159142Y-95148333D01*
X53740095Y-95148333D02*
X54540095Y-95148333D01*
X54540095Y-94767380D01*
X54540095Y-94119761D02*
X54540095Y-94272142D01*
X54502000Y-94348333D01*
X54463904Y-94386428D01*
X54349619Y-94462619D01*
X54197238Y-94500714D01*
X53892476Y-94500714D01*
X53816285Y-94462619D01*
X53778190Y-94424523D01*
X53740095Y-94348333D01*
X53740095Y-94195952D01*
X53778190Y-94119761D01*
X53816285Y-94081666D01*
X53892476Y-94043571D01*
X54082952Y-94043571D01*
X54159142Y-94081666D01*
X54197238Y-94119761D01*
X54235333Y-94195952D01*
X54235333Y-94348333D01*
X54197238Y-94424523D01*
X54159142Y-94462619D01*
X54082952Y-94500714D01*
X56699142Y-94881666D02*
X56699142Y-95148333D01*
X56280095Y-95148333D02*
X57080095Y-95148333D01*
X57080095Y-94767380D01*
X57080095Y-94538809D02*
X57080095Y-94005476D01*
X56280095Y-94348333D01*
X64319142Y-94938809D02*
X64281047Y-94824523D01*
X64242952Y-94786428D01*
X64166761Y-94748333D01*
X64052476Y-94748333D01*
X63976285Y-94786428D01*
X63938190Y-94824523D01*
X63900095Y-94900714D01*
X63900095Y-95205476D01*
X64700095Y-95205476D01*
X64700095Y-94938809D01*
X64662000Y-94862619D01*
X64623904Y-94824523D01*
X64547714Y-94786428D01*
X64471523Y-94786428D01*
X64395333Y-94824523D01*
X64357238Y-94862619D01*
X64319142Y-94938809D01*
X64319142Y-95205476D01*
X64623904Y-94443571D02*
X64662000Y-94405476D01*
X64700095Y-94329285D01*
X64700095Y-94138809D01*
X64662000Y-94062619D01*
X64623904Y-94024523D01*
X64547714Y-93986428D01*
X64471523Y-93986428D01*
X64357238Y-94024523D01*
X63900095Y-94481666D01*
X63900095Y-93986428D01*
%TD*%
M02*
