%TF.GenerationSoftware,KiCad,Pcbnew,(5.1.8)-1*%
%TF.CreationDate,2021-01-26T10:30:40+02:00*%
%TF.ProjectId,bigartsey,62696761-7274-4736-9579-2e6b69636164,rev?*%
%TF.SameCoordinates,Original*%
%TF.FileFunction,Copper,L2,Bot*%
%TF.FilePolarity,Positive*%
%FSLAX46Y46*%
G04 Gerber Fmt 4.6, Leading zero omitted, Abs format (unit mm)*
G04 Created by KiCad (PCBNEW (5.1.8)-1) date 2021-01-26 10:30:40*
%MOMM*%
%LPD*%
G01*
G04 APERTURE LIST*
%TA.AperFunction,ComponentPad*%
%ADD10C,1.752600*%
%TD*%
%TA.AperFunction,ComponentPad*%
%ADD11R,1.752600X1.752600*%
%TD*%
%TA.AperFunction,ComponentPad*%
%ADD12C,14.000000*%
%TD*%
%TA.AperFunction,ComponentPad*%
%ADD13C,1.524000*%
%TD*%
%TA.AperFunction,ComponentPad*%
%ADD14O,5.400000X1.400000*%
%TD*%
%TA.AperFunction,ComponentPad*%
%ADD15O,4.400000X2.400000*%
%TD*%
%TA.AperFunction,ViaPad*%
%ADD16C,0.800000*%
%TD*%
%TA.AperFunction,Conductor*%
%ADD17C,0.250000*%
%TD*%
G04 APERTURE END LIST*
D10*
%TO.P,U1,24*%
%TO.N,Net-(U1-Pad24)*%
X38862000Y-96774000D03*
%TO.P,U1,12*%
%TO.N,sw8*%
X66802000Y-81534000D03*
%TO.P,U1,23*%
%TO.N,Net-(U1-Pad23)*%
X41402000Y-96774000D03*
%TO.P,U1,22*%
%TO.N,Net-(U1-Pad22)*%
X43942000Y-96774000D03*
%TO.P,U1,21*%
%TO.N,Net-(U1-Pad21)*%
X46482000Y-96774000D03*
%TO.P,U1,20*%
%TO.N,Net-(U1-Pad20)*%
X49022000Y-96774000D03*
%TO.P,U1,19*%
%TO.N,Net-(U1-Pad19)*%
X51562000Y-96774000D03*
%TO.P,U1,18*%
%TO.N,Net-(U1-Pad18)*%
X54102000Y-96774000D03*
%TO.P,U1,17*%
%TO.N,Net-(U1-Pad17)*%
X56642000Y-96774000D03*
%TO.P,U1,16*%
%TO.N,Net-(U1-Pad16)*%
X59182000Y-96774000D03*
%TO.P,U1,15*%
%TO.N,Net-(U1-Pad15)*%
X61722000Y-96774000D03*
%TO.P,U1,14*%
%TO.N,Net-(U1-Pad14)*%
X64262000Y-96774000D03*
%TO.P,U1,13*%
%TO.N,Net-(U1-Pad13)*%
X66802000Y-96774000D03*
%TO.P,U1,11*%
%TO.N,sw7*%
X64262000Y-81534000D03*
%TO.P,U1,10*%
%TO.N,sw6*%
X61722000Y-81534000D03*
%TO.P,U1,9*%
%TO.N,sw5*%
X59182000Y-81534000D03*
%TO.P,U1,8*%
%TO.N,sw4*%
X56642000Y-81534000D03*
%TO.P,U1,7*%
%TO.N,sw3*%
X54102000Y-81534000D03*
%TO.P,U1,6*%
%TO.N,sw2*%
X51562000Y-81534000D03*
%TO.P,U1,5*%
%TO.N,sw1*%
X49022000Y-81534000D03*
%TO.P,U1,4*%
%TO.N,GND*%
X46482000Y-81534000D03*
%TO.P,U1,3*%
%TO.N,Net-(U1-Pad3)*%
X43942000Y-81534000D03*
%TO.P,U1,2*%
%TO.N,Net-(U1-Pad2)*%
X41402000Y-81534000D03*
D11*
%TO.P,U1,1*%
%TO.N,Net-(U1-Pad1)*%
X38862000Y-81534000D03*
%TD*%
D12*
%TO.P,SW8,*%
%TO.N,*%
X234251500Y-119855500D03*
D13*
%TO.P,SW8,7*%
%TO.N,N/C*%
X224251500Y-139855500D03*
%TO.P,SW8,6*%
X229251500Y-139855500D03*
%TO.P,SW8,5*%
X239251500Y-139855500D03*
%TO.P,SW8,4*%
X244251500Y-139855500D03*
D14*
%TO.P,SW8,2*%
%TO.N,GND*%
X244251500Y-99855500D03*
D15*
%TO.P,SW8,1*%
%TO.N,sw8*%
X219251500Y-109855500D03*
%TD*%
D12*
%TO.P,SW7,*%
%TO.N,*%
X234251500Y-56705500D03*
D13*
%TO.P,SW7,7*%
%TO.N,N/C*%
X224251500Y-76705500D03*
%TO.P,SW7,6*%
X229251500Y-76705500D03*
%TO.P,SW7,5*%
X239251500Y-76705500D03*
%TO.P,SW7,4*%
X244251500Y-76705500D03*
D14*
%TO.P,SW7,2*%
%TO.N,GND*%
X244251500Y-36705500D03*
D15*
%TO.P,SW7,1*%
%TO.N,sw4*%
X219251500Y-46705500D03*
%TD*%
D12*
%TO.P,SW6,*%
%TO.N,*%
X177101500Y-119855500D03*
D13*
%TO.P,SW6,7*%
%TO.N,N/C*%
X167101500Y-139855500D03*
%TO.P,SW6,6*%
X172101500Y-139855500D03*
%TO.P,SW6,5*%
X182101500Y-139855500D03*
%TO.P,SW6,4*%
X187101500Y-139855500D03*
D14*
%TO.P,SW6,2*%
%TO.N,GND*%
X187101500Y-99855500D03*
D15*
%TO.P,SW6,1*%
%TO.N,sw7*%
X162101500Y-109855500D03*
%TD*%
D12*
%TO.P,SW5,*%
%TO.N,*%
X119951500Y-119855500D03*
D13*
%TO.P,SW5,7*%
%TO.N,N/C*%
X109951500Y-139855500D03*
%TO.P,SW5,6*%
X114951500Y-139855500D03*
%TO.P,SW5,5*%
X124951500Y-139855500D03*
%TO.P,SW5,4*%
X129951500Y-139855500D03*
D14*
%TO.P,SW5,2*%
%TO.N,GND*%
X129951500Y-99855500D03*
D15*
%TO.P,SW5,1*%
%TO.N,sw3*%
X104951500Y-109855500D03*
%TD*%
D12*
%TO.P,SW4,*%
%TO.N,*%
X177101500Y-56705500D03*
D13*
%TO.P,SW4,7*%
%TO.N,N/C*%
X167101500Y-76705500D03*
%TO.P,SW4,6*%
X172101500Y-76705500D03*
%TO.P,SW4,5*%
X182101500Y-76705500D03*
%TO.P,SW4,4*%
X187101500Y-76705500D03*
D14*
%TO.P,SW4,2*%
%TO.N,GND*%
X187101500Y-36705500D03*
D15*
%TO.P,SW4,1*%
%TO.N,sw6*%
X162101500Y-46705500D03*
%TD*%
D12*
%TO.P,SW3,*%
%TO.N,*%
X119951500Y-56705500D03*
D13*
%TO.P,SW3,7*%
%TO.N,N/C*%
X109951500Y-76705500D03*
%TO.P,SW3,6*%
X114951500Y-76705500D03*
%TO.P,SW3,5*%
X124951500Y-76705500D03*
%TO.P,SW3,4*%
X129951500Y-76705500D03*
D14*
%TO.P,SW3,2*%
%TO.N,GND*%
X129951500Y-36705500D03*
D15*
%TO.P,SW3,1*%
%TO.N,sw2*%
X104951500Y-46705500D03*
%TD*%
D12*
%TO.P,SW2,*%
%TO.N,*%
X62801500Y-119855500D03*
D13*
%TO.P,SW2,7*%
%TO.N,N/C*%
X52801500Y-139855500D03*
%TO.P,SW2,6*%
X57801500Y-139855500D03*
%TO.P,SW2,5*%
X67801500Y-139855500D03*
%TO.P,SW2,4*%
X72801500Y-139855500D03*
D14*
%TO.P,SW2,2*%
%TO.N,GND*%
X72801500Y-99855500D03*
D15*
%TO.P,SW2,1*%
%TO.N,sw5*%
X47801500Y-109855500D03*
%TD*%
D12*
%TO.P,SW1,*%
%TO.N,*%
X62801500Y-56705500D03*
D13*
%TO.P,SW1,7*%
%TO.N,N/C*%
X52801500Y-76705500D03*
%TO.P,SW1,6*%
X57801500Y-76705500D03*
%TO.P,SW1,5*%
X67801500Y-76705500D03*
%TO.P,SW1,4*%
X72801500Y-76705500D03*
D14*
%TO.P,SW1,2*%
%TO.N,GND*%
X72801500Y-36705500D03*
D15*
%TO.P,SW1,1*%
%TO.N,sw1*%
X47801500Y-46705500D03*
%TD*%
D16*
%TO.N,GND*%
X85725000Y-100012500D03*
%TO.N,sw6*%
X98425000Y-73025000D03*
%TD*%
D17*
%TO.N,GND*%
X85882000Y-99855500D02*
X85725000Y-100012500D01*
X129951500Y-99855500D02*
X85882000Y-99855500D01*
X72801500Y-36705500D02*
X129951500Y-36705500D01*
X129951500Y-36705500D02*
X187101500Y-36705500D01*
X187101500Y-36705500D02*
X244251500Y-36705500D01*
X71960498Y-36705500D02*
X72801500Y-36705500D01*
X46482000Y-62183998D02*
X71960498Y-36705500D01*
X46482000Y-81534000D02*
X46482000Y-62183998D01*
%TO.N,sw5*%
X55303301Y-102353699D02*
X47801500Y-109855500D01*
X55303301Y-85412699D02*
X55303301Y-102353699D01*
X59182000Y-81534000D02*
X55303301Y-85412699D01*
%TO.N,sw6*%
X61722000Y-81534000D02*
X61722000Y-77184250D01*
X65881250Y-73025000D02*
X98425000Y-73025000D01*
X61722000Y-77184250D02*
X65881250Y-73025000D01*
%TO.N,sw7*%
X64262000Y-81534000D02*
X84328000Y-101600000D01*
X153846000Y-101600000D02*
X162101500Y-109855500D01*
X84328000Y-101600000D02*
X153846000Y-101600000D01*
%TO.N,sw4*%
X56642000Y-81534000D02*
X56642000Y-79660750D01*
X56642000Y-79660750D02*
X67246500Y-69056250D01*
X196900750Y-69056250D02*
X219251500Y-46705500D01*
X67246500Y-69056250D02*
X196900750Y-69056250D01*
%TO.N,sw8*%
X190930000Y-81534000D02*
X219251500Y-109855500D01*
X66802000Y-81534000D02*
X190930000Y-81534000D01*
%TD*%
M02*
