%TF.GenerationSoftware,KiCad,Pcbnew,(5.1.8)-1*%
%TF.CreationDate,2021-01-26T10:30:40+02:00*%
%TF.ProjectId,bigartsey,62696761-7274-4736-9579-2e6b69636164,rev?*%
%TF.SameCoordinates,Original*%
%TF.FileFunction,Legend,Top*%
%TF.FilePolarity,Positive*%
%FSLAX46Y46*%
G04 Gerber Fmt 4.6, Leading zero omitted, Abs format (unit mm)*
G04 Created by KiCad (PCBNEW (5.1.8)-1) date 2021-01-26 10:30:40*
%MOMM*%
%LPD*%
G01*
G04 APERTURE LIST*
%ADD10C,0.381000*%
%ADD11C,0.150000*%
G04 APERTURE END LIST*
D10*
%TO.C,U1*%
X40132000Y-82804000D02*
X40132000Y-80264000D01*
X37592000Y-82804000D02*
X40132000Y-82804000D01*
D11*
G36*
X43881030Y-95198635D02*
G01*
X43981030Y-95198635D01*
X43981030Y-95298635D01*
X43881030Y-95298635D01*
X43881030Y-95198635D01*
G37*
X43881030Y-95198635D02*
X43981030Y-95198635D01*
X43981030Y-95298635D01*
X43881030Y-95298635D01*
X43881030Y-95198635D01*
G36*
X43481030Y-95398635D02*
G01*
X44281030Y-95398635D01*
X44281030Y-95498635D01*
X43481030Y-95498635D01*
X43481030Y-95398635D01*
G37*
X43481030Y-95398635D02*
X44281030Y-95398635D01*
X44281030Y-95498635D01*
X43481030Y-95498635D01*
X43481030Y-95398635D01*
G36*
X44081030Y-94998635D02*
G01*
X44281030Y-94998635D01*
X44281030Y-95098635D01*
X44081030Y-95098635D01*
X44081030Y-94998635D01*
G37*
X44081030Y-94998635D02*
X44281030Y-94998635D01*
X44281030Y-95098635D01*
X44081030Y-95098635D01*
X44081030Y-94998635D01*
G36*
X43481030Y-94998635D02*
G01*
X43781030Y-94998635D01*
X43781030Y-95098635D01*
X43481030Y-95098635D01*
X43481030Y-94998635D01*
G37*
X43481030Y-94998635D02*
X43781030Y-94998635D01*
X43781030Y-95098635D01*
X43481030Y-95098635D01*
X43481030Y-94998635D01*
G36*
X43481030Y-94998635D02*
G01*
X43581030Y-94998635D01*
X43581030Y-95498635D01*
X43481030Y-95498635D01*
X43481030Y-94998635D01*
G37*
X43481030Y-94998635D02*
X43581030Y-94998635D01*
X43581030Y-95498635D01*
X43481030Y-95498635D01*
X43481030Y-94998635D01*
D10*
X68072000Y-98044000D02*
X35052000Y-98044000D01*
X68072000Y-80264000D02*
X68072000Y-98044000D01*
X35052000Y-80264000D02*
X68072000Y-80264000D01*
X35052000Y-98044000D02*
X35052000Y-80264000D01*
X37592000Y-82804000D02*
X37592000Y-80264000D01*
D11*
%TO.C,SW8*%
X256251500Y-146855500D02*
X256251500Y-92855500D01*
X256251500Y-92855500D02*
X212251500Y-92855500D01*
X212251500Y-92855500D02*
X212251500Y-146855500D01*
X256251500Y-146855500D02*
X212251500Y-146855500D01*
X246251500Y-150855500D02*
X262251500Y-150855500D01*
X246251500Y-150855500D02*
X246251500Y-148855500D01*
X246251500Y-148855500D02*
X222251500Y-148855500D01*
X222251500Y-148855500D02*
X222251500Y-150855500D01*
X222251500Y-150855500D02*
X206251500Y-150855500D01*
X224251500Y-88855500D02*
X206251500Y-88855500D01*
X262251500Y-88855500D02*
X244251500Y-88855500D01*
X244251500Y-88855500D02*
X244251500Y-90855500D01*
X244251500Y-90855500D02*
X224251500Y-90855500D01*
X224251500Y-90855500D02*
X224251500Y-88855500D01*
X206251500Y-88855500D02*
X206251500Y-150855500D01*
X262251500Y-150855500D02*
X262251500Y-88855500D01*
X241251500Y-119855500D02*
G75*
G03*
X241251500Y-119855500I-7000000J0D01*
G01*
%TO.C,SW7*%
X256251500Y-83705500D02*
X256251500Y-29705500D01*
X256251500Y-29705500D02*
X212251500Y-29705500D01*
X212251500Y-29705500D02*
X212251500Y-83705500D01*
X256251500Y-83705500D02*
X212251500Y-83705500D01*
X246251500Y-87705500D02*
X262251500Y-87705500D01*
X246251500Y-87705500D02*
X246251500Y-85705500D01*
X246251500Y-85705500D02*
X222251500Y-85705500D01*
X222251500Y-85705500D02*
X222251500Y-87705500D01*
X222251500Y-87705500D02*
X206251500Y-87705500D01*
X224251500Y-25705500D02*
X206251500Y-25705500D01*
X262251500Y-25705500D02*
X244251500Y-25705500D01*
X244251500Y-25705500D02*
X244251500Y-27705500D01*
X244251500Y-27705500D02*
X224251500Y-27705500D01*
X224251500Y-27705500D02*
X224251500Y-25705500D01*
X206251500Y-25705500D02*
X206251500Y-87705500D01*
X262251500Y-87705500D02*
X262251500Y-25705500D01*
X241251500Y-56705500D02*
G75*
G03*
X241251500Y-56705500I-7000000J0D01*
G01*
%TO.C,SW6*%
X199101500Y-146855500D02*
X199101500Y-92855500D01*
X199101500Y-92855500D02*
X155101500Y-92855500D01*
X155101500Y-92855500D02*
X155101500Y-146855500D01*
X199101500Y-146855500D02*
X155101500Y-146855500D01*
X189101500Y-150855500D02*
X205101500Y-150855500D01*
X189101500Y-150855500D02*
X189101500Y-148855500D01*
X189101500Y-148855500D02*
X165101500Y-148855500D01*
X165101500Y-148855500D02*
X165101500Y-150855500D01*
X165101500Y-150855500D02*
X149101500Y-150855500D01*
X167101500Y-88855500D02*
X149101500Y-88855500D01*
X205101500Y-88855500D02*
X187101500Y-88855500D01*
X187101500Y-88855500D02*
X187101500Y-90855500D01*
X187101500Y-90855500D02*
X167101500Y-90855500D01*
X167101500Y-90855500D02*
X167101500Y-88855500D01*
X149101500Y-88855500D02*
X149101500Y-150855500D01*
X205101500Y-150855500D02*
X205101500Y-88855500D01*
X184101500Y-119855500D02*
G75*
G03*
X184101500Y-119855500I-7000000J0D01*
G01*
%TO.C,SW5*%
X141951500Y-146855500D02*
X141951500Y-92855500D01*
X141951500Y-92855500D02*
X97951500Y-92855500D01*
X97951500Y-92855500D02*
X97951500Y-146855500D01*
X141951500Y-146855500D02*
X97951500Y-146855500D01*
X131951500Y-150855500D02*
X147951500Y-150855500D01*
X131951500Y-150855500D02*
X131951500Y-148855500D01*
X131951500Y-148855500D02*
X107951500Y-148855500D01*
X107951500Y-148855500D02*
X107951500Y-150855500D01*
X107951500Y-150855500D02*
X91951500Y-150855500D01*
X109951500Y-88855500D02*
X91951500Y-88855500D01*
X147951500Y-88855500D02*
X129951500Y-88855500D01*
X129951500Y-88855500D02*
X129951500Y-90855500D01*
X129951500Y-90855500D02*
X109951500Y-90855500D01*
X109951500Y-90855500D02*
X109951500Y-88855500D01*
X91951500Y-88855500D02*
X91951500Y-150855500D01*
X147951500Y-150855500D02*
X147951500Y-88855500D01*
X126951500Y-119855500D02*
G75*
G03*
X126951500Y-119855500I-7000000J0D01*
G01*
%TO.C,SW4*%
X199101500Y-83705500D02*
X199101500Y-29705500D01*
X199101500Y-29705500D02*
X155101500Y-29705500D01*
X155101500Y-29705500D02*
X155101500Y-83705500D01*
X199101500Y-83705500D02*
X155101500Y-83705500D01*
X189101500Y-87705500D02*
X205101500Y-87705500D01*
X189101500Y-87705500D02*
X189101500Y-85705500D01*
X189101500Y-85705500D02*
X165101500Y-85705500D01*
X165101500Y-85705500D02*
X165101500Y-87705500D01*
X165101500Y-87705500D02*
X149101500Y-87705500D01*
X167101500Y-25705500D02*
X149101500Y-25705500D01*
X205101500Y-25705500D02*
X187101500Y-25705500D01*
X187101500Y-25705500D02*
X187101500Y-27705500D01*
X187101500Y-27705500D02*
X167101500Y-27705500D01*
X167101500Y-27705500D02*
X167101500Y-25705500D01*
X149101500Y-25705500D02*
X149101500Y-87705500D01*
X205101500Y-87705500D02*
X205101500Y-25705500D01*
X184101500Y-56705500D02*
G75*
G03*
X184101500Y-56705500I-7000000J0D01*
G01*
%TO.C,SW3*%
X141951500Y-83705500D02*
X141951500Y-29705500D01*
X141951500Y-29705500D02*
X97951500Y-29705500D01*
X97951500Y-29705500D02*
X97951500Y-83705500D01*
X141951500Y-83705500D02*
X97951500Y-83705500D01*
X131951500Y-87705500D02*
X147951500Y-87705500D01*
X131951500Y-87705500D02*
X131951500Y-85705500D01*
X131951500Y-85705500D02*
X107951500Y-85705500D01*
X107951500Y-85705500D02*
X107951500Y-87705500D01*
X107951500Y-87705500D02*
X91951500Y-87705500D01*
X109951500Y-25705500D02*
X91951500Y-25705500D01*
X147951500Y-25705500D02*
X129951500Y-25705500D01*
X129951500Y-25705500D02*
X129951500Y-27705500D01*
X129951500Y-27705500D02*
X109951500Y-27705500D01*
X109951500Y-27705500D02*
X109951500Y-25705500D01*
X91951500Y-25705500D02*
X91951500Y-87705500D01*
X147951500Y-87705500D02*
X147951500Y-25705500D01*
X126951500Y-56705500D02*
G75*
G03*
X126951500Y-56705500I-7000000J0D01*
G01*
%TO.C,SW2*%
X84801500Y-146855500D02*
X84801500Y-92855500D01*
X84801500Y-92855500D02*
X40801500Y-92855500D01*
X40801500Y-92855500D02*
X40801500Y-146855500D01*
X84801500Y-146855500D02*
X40801500Y-146855500D01*
X74801500Y-150855500D02*
X90801500Y-150855500D01*
X74801500Y-150855500D02*
X74801500Y-148855500D01*
X74801500Y-148855500D02*
X50801500Y-148855500D01*
X50801500Y-148855500D02*
X50801500Y-150855500D01*
X50801500Y-150855500D02*
X34801500Y-150855500D01*
X52801500Y-88855500D02*
X34801500Y-88855500D01*
X90801500Y-88855500D02*
X72801500Y-88855500D01*
X72801500Y-88855500D02*
X72801500Y-90855500D01*
X72801500Y-90855500D02*
X52801500Y-90855500D01*
X52801500Y-90855500D02*
X52801500Y-88855500D01*
X34801500Y-88855500D02*
X34801500Y-150855500D01*
X90801500Y-150855500D02*
X90801500Y-88855500D01*
X69801500Y-119855500D02*
G75*
G03*
X69801500Y-119855500I-7000000J0D01*
G01*
%TO.C,SW1*%
X84801500Y-83705500D02*
X84801500Y-29705500D01*
X84801500Y-29705500D02*
X40801500Y-29705500D01*
X40801500Y-29705500D02*
X40801500Y-83705500D01*
X84801500Y-83705500D02*
X40801500Y-83705500D01*
X74801500Y-87705500D02*
X90801500Y-87705500D01*
X74801500Y-87705500D02*
X74801500Y-85705500D01*
X74801500Y-85705500D02*
X50801500Y-85705500D01*
X50801500Y-85705500D02*
X50801500Y-87705500D01*
X50801500Y-87705500D02*
X34801500Y-87705500D01*
X52801500Y-25705500D02*
X34801500Y-25705500D01*
X90801500Y-25705500D02*
X72801500Y-25705500D01*
X72801500Y-25705500D02*
X72801500Y-27705500D01*
X72801500Y-27705500D02*
X52801500Y-27705500D01*
X52801500Y-27705500D02*
X52801500Y-25705500D01*
X34801500Y-25705500D02*
X34801500Y-87705500D01*
X90801500Y-87705500D02*
X90801500Y-25705500D01*
X69801500Y-56705500D02*
G75*
G03*
X69801500Y-56705500I-7000000J0D01*
G01*
%TO.C,U1*%
X43598190Y-93660666D02*
X43560095Y-93774952D01*
X43560095Y-93965428D01*
X43598190Y-94041619D01*
X43636285Y-94079714D01*
X43712476Y-94117809D01*
X43788666Y-94117809D01*
X43864857Y-94079714D01*
X43902952Y-94041619D01*
X43941047Y-93965428D01*
X43979142Y-93813047D01*
X44017238Y-93736857D01*
X44055333Y-93698761D01*
X44131523Y-93660666D01*
X44207714Y-93660666D01*
X44283904Y-93698761D01*
X44322000Y-93736857D01*
X44360095Y-93813047D01*
X44360095Y-94003523D01*
X44322000Y-94117809D01*
X44360095Y-94346380D02*
X44360095Y-94803523D01*
X43560095Y-94574952D02*
X44360095Y-94574952D01*
X39300095Y-83391651D02*
X39300095Y-83848794D01*
X38500095Y-83620223D02*
X39300095Y-83620223D01*
X39300095Y-84039270D02*
X38500095Y-84572604D01*
X39300095Y-84572604D02*
X38500095Y-84039270D01*
X39300095Y-85029747D02*
X39300095Y-85105937D01*
X39262000Y-85182128D01*
X39223904Y-85220223D01*
X39147714Y-85258318D01*
X38995333Y-85296413D01*
X38804857Y-85296413D01*
X38652476Y-85258318D01*
X38576285Y-85220223D01*
X38538190Y-85182128D01*
X38500095Y-85105937D01*
X38500095Y-85029747D01*
X38538190Y-84953556D01*
X38576285Y-84915461D01*
X38652476Y-84877366D01*
X38804857Y-84839270D01*
X38995333Y-84839270D01*
X39147714Y-84877366D01*
X39223904Y-84915461D01*
X39262000Y-84953556D01*
X39300095Y-85029747D01*
X39338190Y-86210699D02*
X38309619Y-85524985D01*
X38500095Y-86477366D02*
X39300095Y-86477366D01*
X39300095Y-86667842D01*
X39262000Y-86782128D01*
X39185809Y-86858318D01*
X39109619Y-86896413D01*
X38957238Y-86934508D01*
X38842952Y-86934508D01*
X38690571Y-86896413D01*
X38614380Y-86858318D01*
X38538190Y-86782128D01*
X38500095Y-86667842D01*
X38500095Y-86477366D01*
X39300095Y-87201175D02*
X39300095Y-87696413D01*
X38995333Y-87429747D01*
X38995333Y-87544032D01*
X38957238Y-87620223D01*
X38919142Y-87658318D01*
X38842952Y-87696413D01*
X38652476Y-87696413D01*
X38576285Y-87658318D01*
X38538190Y-87620223D01*
X38500095Y-87544032D01*
X38500095Y-87315461D01*
X38538190Y-87239270D01*
X38576285Y-87201175D01*
X64319142Y-94291190D02*
X64281047Y-94405476D01*
X64242952Y-94443571D01*
X64166761Y-94481666D01*
X64052476Y-94481666D01*
X63976285Y-94443571D01*
X63938190Y-94405476D01*
X63900095Y-94329285D01*
X63900095Y-94024523D01*
X64700095Y-94024523D01*
X64700095Y-94291190D01*
X64662000Y-94367380D01*
X64623904Y-94405476D01*
X64547714Y-94443571D01*
X64471523Y-94443571D01*
X64395333Y-94405476D01*
X64357238Y-94367380D01*
X64319142Y-94291190D01*
X64319142Y-94024523D01*
X64623904Y-94786428D02*
X64662000Y-94824523D01*
X64700095Y-94900714D01*
X64700095Y-95091190D01*
X64662000Y-95167380D01*
X64623904Y-95205476D01*
X64547714Y-95243571D01*
X64471523Y-95243571D01*
X64357238Y-95205476D01*
X63900095Y-94748333D01*
X63900095Y-95243571D01*
X56699142Y-94348333D02*
X56699142Y-94081666D01*
X56280095Y-94081666D02*
X57080095Y-94081666D01*
X57080095Y-94462619D01*
X57080095Y-94691190D02*
X57080095Y-95224523D01*
X56280095Y-94881666D01*
X54159142Y-94348333D02*
X54159142Y-94081666D01*
X53740095Y-94081666D02*
X54540095Y-94081666D01*
X54540095Y-94462619D01*
X54540095Y-95110238D02*
X54540095Y-94957857D01*
X54502000Y-94881666D01*
X54463904Y-94843571D01*
X54349619Y-94767380D01*
X54197238Y-94729285D01*
X53892476Y-94729285D01*
X53816285Y-94767380D01*
X53778190Y-94805476D01*
X53740095Y-94881666D01*
X53740095Y-95034047D01*
X53778190Y-95110238D01*
X53816285Y-95148333D01*
X53892476Y-95186428D01*
X54082952Y-95186428D01*
X54159142Y-95148333D01*
X54197238Y-95110238D01*
X54235333Y-95034047D01*
X54235333Y-94881666D01*
X54197238Y-94805476D01*
X54159142Y-94767380D01*
X54082952Y-94729285D01*
X51619142Y-94348333D02*
X51619142Y-94081666D01*
X51200095Y-94081666D02*
X52000095Y-94081666D01*
X52000095Y-94462619D01*
X52000095Y-95148333D02*
X52000095Y-94767380D01*
X51619142Y-94729285D01*
X51657238Y-94767380D01*
X51695333Y-94843571D01*
X51695333Y-95034047D01*
X51657238Y-95110238D01*
X51619142Y-95148333D01*
X51542952Y-95186428D01*
X51352476Y-95186428D01*
X51276285Y-95148333D01*
X51238190Y-95110238D01*
X51200095Y-95034047D01*
X51200095Y-94843571D01*
X51238190Y-94767380D01*
X51276285Y-94729285D01*
X38500095Y-94062619D02*
X38881047Y-93795952D01*
X38500095Y-93605476D02*
X39300095Y-93605476D01*
X39300095Y-93910238D01*
X39262000Y-93986428D01*
X39223904Y-94024523D01*
X39147714Y-94062619D01*
X39033428Y-94062619D01*
X38957238Y-94024523D01*
X38919142Y-93986428D01*
X38881047Y-93910238D01*
X38881047Y-93605476D01*
X38728666Y-94367380D02*
X38728666Y-94748333D01*
X38500095Y-94291190D02*
X39300095Y-94557857D01*
X38500095Y-94824523D01*
X39300095Y-95015000D02*
X38500095Y-95205476D01*
X39071523Y-95357857D01*
X38500095Y-95510238D01*
X39300095Y-95700714D01*
X41802000Y-94005476D02*
X41840095Y-93929285D01*
X41840095Y-93815000D01*
X41802000Y-93700714D01*
X41725809Y-93624523D01*
X41649619Y-93586428D01*
X41497238Y-93548333D01*
X41382952Y-93548333D01*
X41230571Y-93586428D01*
X41154380Y-93624523D01*
X41078190Y-93700714D01*
X41040095Y-93815000D01*
X41040095Y-93891190D01*
X41078190Y-94005476D01*
X41116285Y-94043571D01*
X41382952Y-94043571D01*
X41382952Y-93891190D01*
X41040095Y-94386428D02*
X41840095Y-94386428D01*
X41040095Y-94843571D01*
X41840095Y-94843571D01*
X41040095Y-95224523D02*
X41840095Y-95224523D01*
X41840095Y-95415000D01*
X41802000Y-95529285D01*
X41725809Y-95605476D01*
X41649619Y-95643571D01*
X41497238Y-95681666D01*
X41382952Y-95681666D01*
X41230571Y-95643571D01*
X41154380Y-95605476D01*
X41078190Y-95529285D01*
X41040095Y-95415000D01*
X41040095Y-95224523D01*
X46920095Y-93548333D02*
X46120095Y-93815000D01*
X46920095Y-94081666D01*
X46196285Y-94805476D02*
X46158190Y-94767380D01*
X46120095Y-94653095D01*
X46120095Y-94576904D01*
X46158190Y-94462619D01*
X46234380Y-94386428D01*
X46310571Y-94348333D01*
X46462952Y-94310238D01*
X46577238Y-94310238D01*
X46729619Y-94348333D01*
X46805809Y-94386428D01*
X46882000Y-94462619D01*
X46920095Y-94576904D01*
X46920095Y-94653095D01*
X46882000Y-94767380D01*
X46843904Y-94805476D01*
X46196285Y-95605476D02*
X46158190Y-95567380D01*
X46120095Y-95453095D01*
X46120095Y-95376904D01*
X46158190Y-95262619D01*
X46234380Y-95186428D01*
X46310571Y-95148333D01*
X46462952Y-95110238D01*
X46577238Y-95110238D01*
X46729619Y-95148333D01*
X46805809Y-95186428D01*
X46882000Y-95262619D01*
X46920095Y-95376904D01*
X46920095Y-95453095D01*
X46882000Y-95567380D01*
X46843904Y-95605476D01*
X49079142Y-94348333D02*
X49079142Y-94081666D01*
X48660095Y-94081666D02*
X49460095Y-94081666D01*
X49460095Y-94462619D01*
X49193428Y-95110238D02*
X48660095Y-95110238D01*
X49498190Y-94919761D02*
X48926761Y-94729285D01*
X48926761Y-95224523D01*
X59239142Y-94291190D02*
X59201047Y-94405476D01*
X59162952Y-94443571D01*
X59086761Y-94481666D01*
X58972476Y-94481666D01*
X58896285Y-94443571D01*
X58858190Y-94405476D01*
X58820095Y-94329285D01*
X58820095Y-94024523D01*
X59620095Y-94024523D01*
X59620095Y-94291190D01*
X59582000Y-94367380D01*
X59543904Y-94405476D01*
X59467714Y-94443571D01*
X59391523Y-94443571D01*
X59315333Y-94405476D01*
X59277238Y-94367380D01*
X59239142Y-94291190D01*
X59239142Y-94024523D01*
X58820095Y-95243571D02*
X58820095Y-94786428D01*
X58820095Y-95015000D02*
X59620095Y-95015000D01*
X59505809Y-94938809D01*
X59429619Y-94862619D01*
X59391523Y-94786428D01*
X61779142Y-94291190D02*
X61741047Y-94405476D01*
X61702952Y-94443571D01*
X61626761Y-94481666D01*
X61512476Y-94481666D01*
X61436285Y-94443571D01*
X61398190Y-94405476D01*
X61360095Y-94329285D01*
X61360095Y-94024523D01*
X62160095Y-94024523D01*
X62160095Y-94291190D01*
X62122000Y-94367380D01*
X62083904Y-94405476D01*
X62007714Y-94443571D01*
X61931523Y-94443571D01*
X61855333Y-94405476D01*
X61817238Y-94367380D01*
X61779142Y-94291190D01*
X61779142Y-94024523D01*
X62160095Y-94748333D02*
X62160095Y-95243571D01*
X61855333Y-94976904D01*
X61855333Y-95091190D01*
X61817238Y-95167380D01*
X61779142Y-95205476D01*
X61702952Y-95243571D01*
X61512476Y-95243571D01*
X61436285Y-95205476D01*
X61398190Y-95167380D01*
X61360095Y-95091190D01*
X61360095Y-94862619D01*
X61398190Y-94786428D01*
X61436285Y-94748333D01*
X66859142Y-94291190D02*
X66821047Y-94405476D01*
X66782952Y-94443571D01*
X66706761Y-94481666D01*
X66592476Y-94481666D01*
X66516285Y-94443571D01*
X66478190Y-94405476D01*
X66440095Y-94329285D01*
X66440095Y-94024523D01*
X67240095Y-94024523D01*
X67240095Y-94291190D01*
X67202000Y-94367380D01*
X67163904Y-94405476D01*
X67087714Y-94443571D01*
X67011523Y-94443571D01*
X66935333Y-94405476D01*
X66897238Y-94367380D01*
X66859142Y-94291190D01*
X66859142Y-94024523D01*
X67240095Y-95167380D02*
X67240095Y-95015000D01*
X67202000Y-94938809D01*
X67163904Y-94900714D01*
X67049619Y-94824523D01*
X66897238Y-94786428D01*
X66592476Y-94786428D01*
X66516285Y-94824523D01*
X66478190Y-94862619D01*
X66440095Y-94938809D01*
X66440095Y-95091190D01*
X66478190Y-95167380D01*
X66516285Y-95205476D01*
X66592476Y-95243571D01*
X66782952Y-95243571D01*
X66859142Y-95205476D01*
X66897238Y-95167380D01*
X66935333Y-95091190D01*
X66935333Y-94938809D01*
X66897238Y-94862619D01*
X66859142Y-94824523D01*
X66782952Y-94786428D01*
X66859142Y-83369190D02*
X66821047Y-83483476D01*
X66782952Y-83521571D01*
X66706761Y-83559666D01*
X66592476Y-83559666D01*
X66516285Y-83521571D01*
X66478190Y-83483476D01*
X66440095Y-83407285D01*
X66440095Y-83102523D01*
X67240095Y-83102523D01*
X67240095Y-83369190D01*
X67202000Y-83445380D01*
X67163904Y-83483476D01*
X67087714Y-83521571D01*
X67011523Y-83521571D01*
X66935333Y-83483476D01*
X66897238Y-83445380D01*
X66859142Y-83369190D01*
X66859142Y-83102523D01*
X67240095Y-84283476D02*
X67240095Y-83902523D01*
X66859142Y-83864428D01*
X66897238Y-83902523D01*
X66935333Y-83978714D01*
X66935333Y-84169190D01*
X66897238Y-84245380D01*
X66859142Y-84283476D01*
X66782952Y-84321571D01*
X66592476Y-84321571D01*
X66516285Y-84283476D01*
X66478190Y-84245380D01*
X66440095Y-84169190D01*
X66440095Y-83978714D01*
X66478190Y-83902523D01*
X66516285Y-83864428D01*
X64319142Y-83369190D02*
X64281047Y-83483476D01*
X64242952Y-83521571D01*
X64166761Y-83559666D01*
X64052476Y-83559666D01*
X63976285Y-83521571D01*
X63938190Y-83483476D01*
X63900095Y-83407285D01*
X63900095Y-83102523D01*
X64700095Y-83102523D01*
X64700095Y-83369190D01*
X64662000Y-83445380D01*
X64623904Y-83483476D01*
X64547714Y-83521571D01*
X64471523Y-83521571D01*
X64395333Y-83483476D01*
X64357238Y-83445380D01*
X64319142Y-83369190D01*
X64319142Y-83102523D01*
X64433428Y-84245380D02*
X63900095Y-84245380D01*
X64738190Y-84054904D02*
X64166761Y-83864428D01*
X64166761Y-84359666D01*
X61779142Y-83140619D02*
X61779142Y-83407285D01*
X61360095Y-83521571D02*
X61360095Y-83140619D01*
X62160095Y-83140619D01*
X62160095Y-83521571D01*
X62160095Y-84207285D02*
X62160095Y-84054904D01*
X62122000Y-83978714D01*
X62083904Y-83940619D01*
X61969619Y-83864428D01*
X61817238Y-83826333D01*
X61512476Y-83826333D01*
X61436285Y-83864428D01*
X61398190Y-83902523D01*
X61360095Y-83978714D01*
X61360095Y-84131095D01*
X61398190Y-84207285D01*
X61436285Y-84245380D01*
X61512476Y-84283476D01*
X61702952Y-84283476D01*
X61779142Y-84245380D01*
X61817238Y-84207285D01*
X61855333Y-84131095D01*
X61855333Y-83978714D01*
X61817238Y-83902523D01*
X61779142Y-83864428D01*
X61702952Y-83826333D01*
X58820095Y-83102523D02*
X59620095Y-83102523D01*
X59620095Y-83293000D01*
X59582000Y-83407285D01*
X59505809Y-83483476D01*
X59429619Y-83521571D01*
X59277238Y-83559666D01*
X59162952Y-83559666D01*
X59010571Y-83521571D01*
X58934380Y-83483476D01*
X58858190Y-83407285D01*
X58820095Y-83293000D01*
X58820095Y-83102523D01*
X59620095Y-83826333D02*
X59620095Y-84359666D01*
X58820095Y-84016809D01*
X56356285Y-83559666D02*
X56318190Y-83521571D01*
X56280095Y-83407285D01*
X56280095Y-83331095D01*
X56318190Y-83216809D01*
X56394380Y-83140619D01*
X56470571Y-83102523D01*
X56622952Y-83064428D01*
X56737238Y-83064428D01*
X56889619Y-83102523D01*
X56965809Y-83140619D01*
X57042000Y-83216809D01*
X57080095Y-83331095D01*
X57080095Y-83407285D01*
X57042000Y-83521571D01*
X57003904Y-83559666D01*
X57080095Y-84245380D02*
X57080095Y-84093000D01*
X57042000Y-84016809D01*
X57003904Y-83978714D01*
X56889619Y-83902523D01*
X56737238Y-83864428D01*
X56432476Y-83864428D01*
X56356285Y-83902523D01*
X56318190Y-83940619D01*
X56280095Y-84016809D01*
X56280095Y-84169190D01*
X56318190Y-84245380D01*
X56356285Y-84283476D01*
X56432476Y-84321571D01*
X56622952Y-84321571D01*
X56699142Y-84283476D01*
X56737238Y-84245380D01*
X56775333Y-84169190D01*
X56775333Y-84016809D01*
X56737238Y-83940619D01*
X56699142Y-83902523D01*
X56622952Y-83864428D01*
X53740095Y-83102523D02*
X54540095Y-83102523D01*
X54540095Y-83293000D01*
X54502000Y-83407285D01*
X54425809Y-83483476D01*
X54349619Y-83521571D01*
X54197238Y-83559666D01*
X54082952Y-83559666D01*
X53930571Y-83521571D01*
X53854380Y-83483476D01*
X53778190Y-83407285D01*
X53740095Y-83293000D01*
X53740095Y-83102523D01*
X54273428Y-84245380D02*
X53740095Y-84245380D01*
X54578190Y-84054904D02*
X54006761Y-83864428D01*
X54006761Y-84359666D01*
X44342000Y-83083476D02*
X44380095Y-83007285D01*
X44380095Y-82893000D01*
X44342000Y-82778714D01*
X44265809Y-82702523D01*
X44189619Y-82664428D01*
X44037238Y-82626333D01*
X43922952Y-82626333D01*
X43770571Y-82664428D01*
X43694380Y-82702523D01*
X43618190Y-82778714D01*
X43580095Y-82893000D01*
X43580095Y-82969190D01*
X43618190Y-83083476D01*
X43656285Y-83121571D01*
X43922952Y-83121571D01*
X43922952Y-82969190D01*
X43580095Y-83464428D02*
X44380095Y-83464428D01*
X43580095Y-83921571D01*
X44380095Y-83921571D01*
X43580095Y-84302523D02*
X44380095Y-84302523D01*
X44380095Y-84493000D01*
X44342000Y-84607285D01*
X44265809Y-84683476D01*
X44189619Y-84721571D01*
X44037238Y-84759666D01*
X43922952Y-84759666D01*
X43770571Y-84721571D01*
X43694380Y-84683476D01*
X43618190Y-84607285D01*
X43580095Y-84493000D01*
X43580095Y-84302523D01*
X46882000Y-83083476D02*
X46920095Y-83007285D01*
X46920095Y-82893000D01*
X46882000Y-82778714D01*
X46805809Y-82702523D01*
X46729619Y-82664428D01*
X46577238Y-82626333D01*
X46462952Y-82626333D01*
X46310571Y-82664428D01*
X46234380Y-82702523D01*
X46158190Y-82778714D01*
X46120095Y-82893000D01*
X46120095Y-82969190D01*
X46158190Y-83083476D01*
X46196285Y-83121571D01*
X46462952Y-83121571D01*
X46462952Y-82969190D01*
X46120095Y-83464428D02*
X46920095Y-83464428D01*
X46120095Y-83921571D01*
X46920095Y-83921571D01*
X46120095Y-84302523D02*
X46920095Y-84302523D01*
X46920095Y-84493000D01*
X46882000Y-84607285D01*
X46805809Y-84683476D01*
X46729619Y-84721571D01*
X46577238Y-84759666D01*
X46462952Y-84759666D01*
X46310571Y-84721571D01*
X46234380Y-84683476D01*
X46158190Y-84607285D01*
X46120095Y-84493000D01*
X46120095Y-84302523D01*
X48660095Y-83102523D02*
X49460095Y-83102523D01*
X49460095Y-83293000D01*
X49422000Y-83407285D01*
X49345809Y-83483476D01*
X49269619Y-83521571D01*
X49117238Y-83559666D01*
X49002952Y-83559666D01*
X48850571Y-83521571D01*
X48774380Y-83483476D01*
X48698190Y-83407285D01*
X48660095Y-83293000D01*
X48660095Y-83102523D01*
X48660095Y-84321571D02*
X48660095Y-83864428D01*
X48660095Y-84093000D02*
X49460095Y-84093000D01*
X49345809Y-84016809D01*
X49269619Y-83940619D01*
X49231523Y-83864428D01*
X51200095Y-83102523D02*
X52000095Y-83102523D01*
X52000095Y-83293000D01*
X51962000Y-83407285D01*
X51885809Y-83483476D01*
X51809619Y-83521571D01*
X51657238Y-83559666D01*
X51542952Y-83559666D01*
X51390571Y-83521571D01*
X51314380Y-83483476D01*
X51238190Y-83407285D01*
X51200095Y-83293000D01*
X51200095Y-83102523D01*
X52000095Y-84054904D02*
X52000095Y-84131095D01*
X51962000Y-84207285D01*
X51923904Y-84245380D01*
X51847714Y-84283476D01*
X51695333Y-84321571D01*
X51504857Y-84321571D01*
X51352476Y-84283476D01*
X51276285Y-84245380D01*
X51238190Y-84207285D01*
X51200095Y-84131095D01*
X51200095Y-84054904D01*
X51238190Y-83978714D01*
X51276285Y-83940619D01*
X51352476Y-83902523D01*
X51504857Y-83864428D01*
X51695333Y-83864428D01*
X51847714Y-83902523D01*
X51923904Y-83940619D01*
X51962000Y-83978714D01*
X52000095Y-84054904D01*
X41040095Y-83102523D02*
X41840095Y-83102523D01*
X41840095Y-83293000D01*
X41802000Y-83407285D01*
X41725809Y-83483476D01*
X41649619Y-83521571D01*
X41497238Y-83559666D01*
X41382952Y-83559666D01*
X41230571Y-83521571D01*
X41154380Y-83483476D01*
X41078190Y-83407285D01*
X41040095Y-83293000D01*
X41040095Y-83102523D01*
X41763904Y-83864428D02*
X41802000Y-83902523D01*
X41840095Y-83978714D01*
X41840095Y-84169190D01*
X41802000Y-84245380D01*
X41763904Y-84283476D01*
X41687714Y-84321571D01*
X41611523Y-84321571D01*
X41497238Y-84283476D01*
X41040095Y-83826333D01*
X41040095Y-84321571D01*
%TO.C,SW8*%
X232918166Y-151260261D02*
X233061023Y-151307880D01*
X233299119Y-151307880D01*
X233394357Y-151260261D01*
X233441976Y-151212642D01*
X233489595Y-151117404D01*
X233489595Y-151022166D01*
X233441976Y-150926928D01*
X233394357Y-150879309D01*
X233299119Y-150831690D01*
X233108642Y-150784071D01*
X233013404Y-150736452D01*
X232965785Y-150688833D01*
X232918166Y-150593595D01*
X232918166Y-150498357D01*
X232965785Y-150403119D01*
X233013404Y-150355500D01*
X233108642Y-150307880D01*
X233346738Y-150307880D01*
X233489595Y-150355500D01*
X233822928Y-150307880D02*
X234061023Y-151307880D01*
X234251500Y-150593595D01*
X234441976Y-151307880D01*
X234680071Y-150307880D01*
X235203880Y-150736452D02*
X235108642Y-150688833D01*
X235061023Y-150641214D01*
X235013404Y-150545976D01*
X235013404Y-150498357D01*
X235061023Y-150403119D01*
X235108642Y-150355500D01*
X235203880Y-150307880D01*
X235394357Y-150307880D01*
X235489595Y-150355500D01*
X235537214Y-150403119D01*
X235584833Y-150498357D01*
X235584833Y-150545976D01*
X235537214Y-150641214D01*
X235489595Y-150688833D01*
X235394357Y-150736452D01*
X235203880Y-150736452D01*
X235108642Y-150784071D01*
X235061023Y-150831690D01*
X235013404Y-150926928D01*
X235013404Y-151117404D01*
X235061023Y-151212642D01*
X235108642Y-151260261D01*
X235203880Y-151307880D01*
X235394357Y-151307880D01*
X235489595Y-151260261D01*
X235537214Y-151212642D01*
X235584833Y-151117404D01*
X235584833Y-150926928D01*
X235537214Y-150831690D01*
X235489595Y-150784071D01*
X235394357Y-150736452D01*
%TO.C,SW7*%
X232918166Y-88110261D02*
X233061023Y-88157880D01*
X233299119Y-88157880D01*
X233394357Y-88110261D01*
X233441976Y-88062642D01*
X233489595Y-87967404D01*
X233489595Y-87872166D01*
X233441976Y-87776928D01*
X233394357Y-87729309D01*
X233299119Y-87681690D01*
X233108642Y-87634071D01*
X233013404Y-87586452D01*
X232965785Y-87538833D01*
X232918166Y-87443595D01*
X232918166Y-87348357D01*
X232965785Y-87253119D01*
X233013404Y-87205500D01*
X233108642Y-87157880D01*
X233346738Y-87157880D01*
X233489595Y-87205500D01*
X233822928Y-87157880D02*
X234061023Y-88157880D01*
X234251500Y-87443595D01*
X234441976Y-88157880D01*
X234680071Y-87157880D01*
X234965785Y-87157880D02*
X235632452Y-87157880D01*
X235203880Y-88157880D01*
%TO.C,SW6*%
X175768166Y-151260261D02*
X175911023Y-151307880D01*
X176149119Y-151307880D01*
X176244357Y-151260261D01*
X176291976Y-151212642D01*
X176339595Y-151117404D01*
X176339595Y-151022166D01*
X176291976Y-150926928D01*
X176244357Y-150879309D01*
X176149119Y-150831690D01*
X175958642Y-150784071D01*
X175863404Y-150736452D01*
X175815785Y-150688833D01*
X175768166Y-150593595D01*
X175768166Y-150498357D01*
X175815785Y-150403119D01*
X175863404Y-150355500D01*
X175958642Y-150307880D01*
X176196738Y-150307880D01*
X176339595Y-150355500D01*
X176672928Y-150307880D02*
X176911023Y-151307880D01*
X177101500Y-150593595D01*
X177291976Y-151307880D01*
X177530071Y-150307880D01*
X178339595Y-150307880D02*
X178149119Y-150307880D01*
X178053880Y-150355500D01*
X178006261Y-150403119D01*
X177911023Y-150545976D01*
X177863404Y-150736452D01*
X177863404Y-151117404D01*
X177911023Y-151212642D01*
X177958642Y-151260261D01*
X178053880Y-151307880D01*
X178244357Y-151307880D01*
X178339595Y-151260261D01*
X178387214Y-151212642D01*
X178434833Y-151117404D01*
X178434833Y-150879309D01*
X178387214Y-150784071D01*
X178339595Y-150736452D01*
X178244357Y-150688833D01*
X178053880Y-150688833D01*
X177958642Y-150736452D01*
X177911023Y-150784071D01*
X177863404Y-150879309D01*
%TO.C,SW5*%
X118618166Y-151260261D02*
X118761023Y-151307880D01*
X118999119Y-151307880D01*
X119094357Y-151260261D01*
X119141976Y-151212642D01*
X119189595Y-151117404D01*
X119189595Y-151022166D01*
X119141976Y-150926928D01*
X119094357Y-150879309D01*
X118999119Y-150831690D01*
X118808642Y-150784071D01*
X118713404Y-150736452D01*
X118665785Y-150688833D01*
X118618166Y-150593595D01*
X118618166Y-150498357D01*
X118665785Y-150403119D01*
X118713404Y-150355500D01*
X118808642Y-150307880D01*
X119046738Y-150307880D01*
X119189595Y-150355500D01*
X119522928Y-150307880D02*
X119761023Y-151307880D01*
X119951500Y-150593595D01*
X120141976Y-151307880D01*
X120380071Y-150307880D01*
X121237214Y-150307880D02*
X120761023Y-150307880D01*
X120713404Y-150784071D01*
X120761023Y-150736452D01*
X120856261Y-150688833D01*
X121094357Y-150688833D01*
X121189595Y-150736452D01*
X121237214Y-150784071D01*
X121284833Y-150879309D01*
X121284833Y-151117404D01*
X121237214Y-151212642D01*
X121189595Y-151260261D01*
X121094357Y-151307880D01*
X120856261Y-151307880D01*
X120761023Y-151260261D01*
X120713404Y-151212642D01*
%TO.C,SW4*%
X175768166Y-88110261D02*
X175911023Y-88157880D01*
X176149119Y-88157880D01*
X176244357Y-88110261D01*
X176291976Y-88062642D01*
X176339595Y-87967404D01*
X176339595Y-87872166D01*
X176291976Y-87776928D01*
X176244357Y-87729309D01*
X176149119Y-87681690D01*
X175958642Y-87634071D01*
X175863404Y-87586452D01*
X175815785Y-87538833D01*
X175768166Y-87443595D01*
X175768166Y-87348357D01*
X175815785Y-87253119D01*
X175863404Y-87205500D01*
X175958642Y-87157880D01*
X176196738Y-87157880D01*
X176339595Y-87205500D01*
X176672928Y-87157880D02*
X176911023Y-88157880D01*
X177101500Y-87443595D01*
X177291976Y-88157880D01*
X177530071Y-87157880D01*
X178339595Y-87491214D02*
X178339595Y-88157880D01*
X178101500Y-87110261D02*
X177863404Y-87824547D01*
X178482452Y-87824547D01*
%TO.C,SW3*%
X118618166Y-88110261D02*
X118761023Y-88157880D01*
X118999119Y-88157880D01*
X119094357Y-88110261D01*
X119141976Y-88062642D01*
X119189595Y-87967404D01*
X119189595Y-87872166D01*
X119141976Y-87776928D01*
X119094357Y-87729309D01*
X118999119Y-87681690D01*
X118808642Y-87634071D01*
X118713404Y-87586452D01*
X118665785Y-87538833D01*
X118618166Y-87443595D01*
X118618166Y-87348357D01*
X118665785Y-87253119D01*
X118713404Y-87205500D01*
X118808642Y-87157880D01*
X119046738Y-87157880D01*
X119189595Y-87205500D01*
X119522928Y-87157880D02*
X119761023Y-88157880D01*
X119951500Y-87443595D01*
X120141976Y-88157880D01*
X120380071Y-87157880D01*
X120665785Y-87157880D02*
X121284833Y-87157880D01*
X120951500Y-87538833D01*
X121094357Y-87538833D01*
X121189595Y-87586452D01*
X121237214Y-87634071D01*
X121284833Y-87729309D01*
X121284833Y-87967404D01*
X121237214Y-88062642D01*
X121189595Y-88110261D01*
X121094357Y-88157880D01*
X120808642Y-88157880D01*
X120713404Y-88110261D01*
X120665785Y-88062642D01*
%TO.C,SW2*%
X61468166Y-151260261D02*
X61611023Y-151307880D01*
X61849119Y-151307880D01*
X61944357Y-151260261D01*
X61991976Y-151212642D01*
X62039595Y-151117404D01*
X62039595Y-151022166D01*
X61991976Y-150926928D01*
X61944357Y-150879309D01*
X61849119Y-150831690D01*
X61658642Y-150784071D01*
X61563404Y-150736452D01*
X61515785Y-150688833D01*
X61468166Y-150593595D01*
X61468166Y-150498357D01*
X61515785Y-150403119D01*
X61563404Y-150355500D01*
X61658642Y-150307880D01*
X61896738Y-150307880D01*
X62039595Y-150355500D01*
X62372928Y-150307880D02*
X62611023Y-151307880D01*
X62801500Y-150593595D01*
X62991976Y-151307880D01*
X63230071Y-150307880D01*
X63563404Y-150403119D02*
X63611023Y-150355500D01*
X63706261Y-150307880D01*
X63944357Y-150307880D01*
X64039595Y-150355500D01*
X64087214Y-150403119D01*
X64134833Y-150498357D01*
X64134833Y-150593595D01*
X64087214Y-150736452D01*
X63515785Y-151307880D01*
X64134833Y-151307880D01*
%TO.C,SW1*%
X61468166Y-88110261D02*
X61611023Y-88157880D01*
X61849119Y-88157880D01*
X61944357Y-88110261D01*
X61991976Y-88062642D01*
X62039595Y-87967404D01*
X62039595Y-87872166D01*
X61991976Y-87776928D01*
X61944357Y-87729309D01*
X61849119Y-87681690D01*
X61658642Y-87634071D01*
X61563404Y-87586452D01*
X61515785Y-87538833D01*
X61468166Y-87443595D01*
X61468166Y-87348357D01*
X61515785Y-87253119D01*
X61563404Y-87205500D01*
X61658642Y-87157880D01*
X61896738Y-87157880D01*
X62039595Y-87205500D01*
X62372928Y-87157880D02*
X62611023Y-88157880D01*
X62801500Y-87443595D01*
X62991976Y-88157880D01*
X63230071Y-87157880D01*
X64134833Y-88157880D02*
X63563404Y-88157880D01*
X63849119Y-88157880D02*
X63849119Y-87157880D01*
X63753880Y-87300738D01*
X63658642Y-87395976D01*
X63563404Y-87443595D01*
%TD*%
M02*
