%TF.GenerationSoftware,KiCad,Pcbnew,(5.1.8)-1*%
%TF.CreationDate,2021-01-26T10:30:40+02:00*%
%TF.ProjectId,bigartsey,62696761-7274-4736-9579-2e6b69636164,rev?*%
%TF.SameCoordinates,Original*%
%TF.FileFunction,Soldermask,Bot*%
%TF.FilePolarity,Negative*%
%FSLAX46Y46*%
G04 Gerber Fmt 4.6, Leading zero omitted, Abs format (unit mm)*
G04 Created by KiCad (PCBNEW (5.1.8)-1) date 2021-01-26 10:30:40*
%MOMM*%
%LPD*%
G01*
G04 APERTURE LIST*
%ADD10C,1.752600*%
%ADD11R,1.752600X1.752600*%
%ADD12C,14.000000*%
%ADD13C,1.524000*%
%ADD14O,5.400000X1.400000*%
%ADD15O,4.400000X2.400000*%
G04 APERTURE END LIST*
D10*
%TO.C,U1*%
X38862000Y-96774000D03*
X66802000Y-81534000D03*
X41402000Y-96774000D03*
X43942000Y-96774000D03*
X46482000Y-96774000D03*
X49022000Y-96774000D03*
X51562000Y-96774000D03*
X54102000Y-96774000D03*
X56642000Y-96774000D03*
X59182000Y-96774000D03*
X61722000Y-96774000D03*
X64262000Y-96774000D03*
X66802000Y-96774000D03*
X64262000Y-81534000D03*
X61722000Y-81534000D03*
X59182000Y-81534000D03*
X56642000Y-81534000D03*
X54102000Y-81534000D03*
X51562000Y-81534000D03*
X49022000Y-81534000D03*
X46482000Y-81534000D03*
X43942000Y-81534000D03*
X41402000Y-81534000D03*
D11*
X38862000Y-81534000D03*
%TD*%
D12*
%TO.C,SW8*%
X234251500Y-119855500D03*
D13*
X224251500Y-139855500D03*
X229251500Y-139855500D03*
X239251500Y-139855500D03*
X244251500Y-139855500D03*
D14*
X244251500Y-99855500D03*
D15*
X219251500Y-109855500D03*
%TD*%
D12*
%TO.C,SW7*%
X234251500Y-56705500D03*
D13*
X224251500Y-76705500D03*
X229251500Y-76705500D03*
X239251500Y-76705500D03*
X244251500Y-76705500D03*
D14*
X244251500Y-36705500D03*
D15*
X219251500Y-46705500D03*
%TD*%
D12*
%TO.C,SW6*%
X177101500Y-119855500D03*
D13*
X167101500Y-139855500D03*
X172101500Y-139855500D03*
X182101500Y-139855500D03*
X187101500Y-139855500D03*
D14*
X187101500Y-99855500D03*
D15*
X162101500Y-109855500D03*
%TD*%
D12*
%TO.C,SW5*%
X119951500Y-119855500D03*
D13*
X109951500Y-139855500D03*
X114951500Y-139855500D03*
X124951500Y-139855500D03*
X129951500Y-139855500D03*
D14*
X129951500Y-99855500D03*
D15*
X104951500Y-109855500D03*
%TD*%
D12*
%TO.C,SW4*%
X177101500Y-56705500D03*
D13*
X167101500Y-76705500D03*
X172101500Y-76705500D03*
X182101500Y-76705500D03*
X187101500Y-76705500D03*
D14*
X187101500Y-36705500D03*
D15*
X162101500Y-46705500D03*
%TD*%
D12*
%TO.C,SW3*%
X119951500Y-56705500D03*
D13*
X109951500Y-76705500D03*
X114951500Y-76705500D03*
X124951500Y-76705500D03*
X129951500Y-76705500D03*
D14*
X129951500Y-36705500D03*
D15*
X104951500Y-46705500D03*
%TD*%
D12*
%TO.C,SW2*%
X62801500Y-119855500D03*
D13*
X52801500Y-139855500D03*
X57801500Y-139855500D03*
X67801500Y-139855500D03*
X72801500Y-139855500D03*
D14*
X72801500Y-99855500D03*
D15*
X47801500Y-109855500D03*
%TD*%
D12*
%TO.C,SW1*%
X62801500Y-56705500D03*
D13*
X52801500Y-76705500D03*
X57801500Y-76705500D03*
X67801500Y-76705500D03*
X72801500Y-76705500D03*
D14*
X72801500Y-36705500D03*
D15*
X47801500Y-46705500D03*
%TD*%
M02*
