M48
; DRILL file {KiCad (5.1.8)-1} date 01/26/21 10:30:42
; FORMAT={-:-/ absolute / inch / decimal}
; #@! TF.CreationDate,2021-01-26T10:30:42+02:00
; #@! TF.GenerationSoftware,Kicad,Pcbnew,(5.1.8)-1
; #@! TF.FileFunction,Plated,1,2,PTH
FMAT,2
INCH
T1C0.0157
T2C0.0300
T3C0.0394
T4C0.0430
T5C0.0787
T6C0.5512
%
G90
G05
T1
X3.375Y-3.9375
X3.875Y-2.875
T2
X2.0788Y-3.0199
X2.2756Y-3.0199
X2.6694Y-3.0199
X2.8662Y-3.0199
X8.8288Y-5.5061
X9.0256Y-5.5061
X9.4194Y-5.5061
X9.6162Y-5.5061
X6.5788Y-5.5061
X6.7756Y-5.5061
X7.1694Y-5.5061
X7.3662Y-5.5061
X6.5788Y-3.0199
X6.7756Y-3.0199
X7.1694Y-3.0199
X7.3662Y-3.0199
X4.3288Y-5.5061
X4.5256Y-5.5061
X4.9194Y-5.5061
X5.1162Y-5.5061
X4.3288Y-3.0199
X4.5256Y-3.0199
X4.9194Y-3.0199
X5.1162Y-3.0199
X8.8288Y-3.0199
X9.0256Y-3.0199
X9.4194Y-3.0199
X9.6162Y-3.0199
X2.0788Y-5.5061
X2.2756Y-5.5061
X2.6694Y-5.5061
X2.8662Y-5.5061
T4
X1.53Y-3.21
X1.53Y-3.81
X1.63Y-3.21
X1.63Y-3.81
X1.73Y-3.21
X1.73Y-3.81
X1.83Y-3.21
X1.83Y-3.81
X1.93Y-3.21
X1.93Y-3.81
X2.03Y-3.21
X2.03Y-3.81
X2.13Y-3.21
X2.13Y-3.81
X2.23Y-3.21
X2.23Y-3.81
X2.33Y-3.21
X2.33Y-3.81
X2.43Y-3.21
X2.43Y-3.81
X2.53Y-3.21
X2.53Y-3.81
X2.63Y-3.21
X2.63Y-3.81
T6
X6.9725Y-2.2325
X4.7225Y-2.2325
X2.4725Y-4.7187
X2.4725Y-2.2325
X9.2225Y-4.7187
X6.9725Y-4.7187
X4.7225Y-4.7187
X9.2225Y-2.2325
T3
G00X9.5375Y-1.4451
M15
G01X9.6949Y-1.4451
M16
G05
G00X2.7875Y-3.9313
M15
G01X2.9449Y-3.9313
M16
G05
G00X2.7875Y-1.4451
M15
G01X2.9449Y-1.4451
M16
G05
G00X9.5375Y-3.9313
M15
G01X9.6949Y-3.9313
M16
G05
G00X7.2875Y-3.9313
M15
G01X7.4449Y-3.9313
M16
G05
G00X7.2875Y-1.4451
M15
G01X7.4449Y-1.4451
M16
G05
G00X5.0375Y-3.9313
M15
G01X5.1949Y-3.9313
M16
G05
G00X5.0375Y-1.4451
M15
G01X5.1949Y-1.4451
M16
G05
T5
G00X8.5926Y-1.8388
M15
G01X8.6713Y-1.8388
M16
G05
G00X1.8426Y-4.325
M15
G01X1.9213Y-4.325
M16
G05
G00X1.8426Y-1.8388
M15
G01X1.9213Y-1.8388
M16
G05
G00X8.5926Y-4.325
M15
G01X8.6713Y-4.325
M16
G05
G00X6.3426Y-4.325
M15
G01X6.4213Y-4.325
M16
G05
G00X6.3426Y-1.8388
M15
G01X6.4213Y-1.8388
M16
G05
G00X4.0926Y-4.325
M15
G01X4.1713Y-4.325
M16
G05
G00X4.0926Y-1.8388
M15
G01X4.1713Y-1.8388
M16
G05
T0
M30
